<svg id="visual" viewBox="0 0 900 600" width="900" height="600" xmlns="http://www.w3.org/2000/svg" xmlns:xlink="http://www.w3.org/1999/xlink" version="1.1"><rect x="0" y="0" width="900" height="600" fill="#10ecec"></rect><path d="M0 406L21.5 425.3C43 444.7 86 483.3 128.8 478.8C171.7 474.3 214.3 426.7 257.2 422.7C300 418.7 343 458.3 385.8 480.8C428.7 503.3 471.3 508.7 514.2 490.8C557 473 600 432 642.8 432.2C685.7 432.3 728.3 473.7 771.2 471.2C814 468.7 857 422.3 878.5 399.2L900 376L900 601L878.5 601C857 601 814 601 771.2 601C728.3 601 685.7 601 642.8 601C600 601 557 601 514.2 601C471.3 601 428.7 601 385.8 601C343 601 300 601 257.2 601C214.3 601 171.7 601 128.8 601C86 601 43 601 21.5 601L0 601Z" fill="#1f63c9" stroke-linecap="round" stroke-linejoin="miter"></path></svg>